<svg xmlns="http://www.w3.org/2000/svg" version="1.1" xmlns:xlink="http://www.w3.org/1999/xlink" xmlns:svgjs="http://svgjs.dev/svgjs" width="2000" height="1991" viewBox="0 0 2000 1991"><g transform="matrix(1,0,0,1,1.2417258234710289,0.8075613846225451)"><svg viewBox="0 0 248 247" data-background-color="#ffffff" preserveAspectRatio="xMidYMid meet" height="1991" width="2000" xmlns="http://www.w3.org/2000/svg" xmlns:xlink="http://www.w3.org/1999/xlink"><g id="tight-bounds" transform="matrix(1,0,0,1,-0.15395408010735423,-0.09997365579206985)"><svg viewBox="0 0 248.3078297576589 247.2" height="247.2" width="248.3078297576589"><g><svg viewBox="0 0 248.3078297576589 247.2" height="247.2" width="248.3078297576589"><g><svg viewBox="0 0 248.3078297576589 247.2" height="247.2" width="248.3078297576589"><g id="textblocktransform"><svg viewBox="0 0 248.3078297576589 247.2" height="247.2" width="248.3078297576589" id="textblock"><g><svg viewBox="0 0 248.3078297576589 247.2" height="247.2" width="248.3078297576589"><path d="M247.726 53.02C246.559 27.36 243.232 20.227 243.232 20.227 233.018-6.202 220.27-0.506 208.819 3.292 188.6 3.446 168.464 9.091 148.292 12.119 105.952 12.581 63.25 4.986 21.121 23.717 17.164 29.464-4.106 24.846 0.704 56.304 1.965 69.39 6.564 83.913 6.424 95.922 7.054 98.026 7.93 93.202 8.303 96.23 9.611 104.39 11.747 100.541 13.498 105.365 11.058 118.246 12.809 128.971 14.479 140.21 11.537 143.135 7.766 141.749 6.074 151.449 5.899 158.479 4.953 157.145 3.914 156.837 3.155 156.632 1.626 157.402 1.883 159.608 2.758 167.152-1 171.514 1.358 178.904-0.265 186.91 2.478 193.838 2.105 202.511 2.058 204.255 2.315 205.744 2.723 206.154 4.533 208.361 1.895 212.672 2.175 217.342 20.736 249.262 40.872 227.195 59.888 241.872 64.826 231.608 61.114 245.516 63.087 243.36 64.628 240.846 65.749 251.263 67.488 245.362 67.756 243.668 67.348 239.665 68.305 240.435 68.807 240.846 69.251 240.743 69.321 238.382 69.426 234.841 68.503 237.048 68.258 235.201 70.908 225.861 70.255 248.081 72.741 247.158 72.624 244.438 71.9 240.538 73.383 241.051 74.854 237.151 74.901 233.918 76.208 242.693 76.255 244.592 76.488 245.926 76.862 246.85 80.947 237.305 85.01 250.237 89.294 245.926 91.921 241.205 94.442 248.492 97.104 246.696 98.037 245.259 98.983 242.693 99.882 247.004 110.89 247.928 122.622 244.079 133.058 247.158 160.946 241.41 190.748 249.518 220.154 241.923 227.088 238.998 234.29 234.841 241.049 231.506 241.049 231.506 246.524 222.371 246.524 181.316S247.691 145.393 247.867 112.703C248.042 80.013 248.859 78.679 247.691 53.02Z" opacity="1" fill="#000000" data-fill-palette-color="tertiary"></path><g transform="matrix(1,0,0,1,55.76832,26.230666666666668)"><svg width="136.7711897576589" viewBox="5 -36.1 25.6 36.45" height="194.73866666666666" data-palette-color="#ffffff"><path d="M7.3 0.35L7.3 0.35Q6.05 0.35 5 0L5 0 5-36.1 16.95-36.1Q20.3-36.1 23.18-35.08 26.05-34.05 27.83-31.75 29.6-29.45 29.6-25.7L29.6-25.7Q29.6-22.8 28.45-20.73 27.3-18.65 25.5-17.32 23.7-16 21.65-15.25L21.65-15.25 30.6-2.7Q30.2-1.65 29.18-0.8 28.15 0.05 26.95 0.3L26.95 0.3 16.65-14.15Q16.1-14.1 15.6-14.1L15.6-14.1 9.65-14.1 9.65 0Q8.45 0.35 7.3 0.35ZM17.35-31.8L17.35-31.8 9.65-31.8 9.65-18.4 15.6-18.4Q17.15-18.4 18.78-18.73 20.4-19.05 21.75-19.83 23.1-20.6 23.95-22 24.8-23.4 24.8-25.55L24.8-25.55Q24.8-28.6 22.7-30.2 20.6-31.8 17.35-31.8Z" opacity="1" transform="matrix(1,0,0,1,0,0)" fill="#ffffff" class="wordmark-text-0" data-fill-palette-color="quaternary" id="text-0"></path></svg></g></svg></g></svg></g></svg></g><g></g></svg></g><defs></defs></svg><rect width="248.3078297576589" height="247.2" fill="none" stroke="none" visibility="hidden"></rect></g></svg></g></svg>